<?xml version="1.0" encoding="UTF-8"?>
<svg version="1.1" xmlns="http://www.w3.org/2000/svg" width="1280" height="592">
<path d="M0 0 C422.4 0 844.8 0 1280 0 C1280 195.36 1280 390.72 1280 592 C857.6 592 435.2 592 0 592 C0 396.64 0 201.28 0 0 Z " fill="#FEFEFE" transform="translate(0,0)"/>
<path d="M0 0 C0.69520752 -0.01828857 1.39041504 -0.03657715 2.10668945 -0.05541992 C7.12129221 0.00605942 10.92284338 1.3381568 14.75 4.5 C24.29474473 15.02129447 28.4912278 28.73486192 32.90673828 41.96826172 C37.98674856 59.11515882 37.98674856 59.11515882 48.4375 72.75 C56.74174764 76.81512694 66.81563654 76.73658257 75.87963867 77.67822266 C82.15286026 78.35944756 88.25383378 79.48118958 94.41796875 80.81640625 C102.42593417 82.45930654 110.95618694 83.90994502 118.9375 81.5625 C126.38114162 76.10382948 131.2923107 68.41815067 136.39892578 60.86962891 C158.09521199 28.84177784 158.09521199 28.84177784 169.75 23.5 C170.41 23.17 171.07 22.84 171.75 22.5 C184.97830602 20.55056543 198.91694445 28.16915414 210.68676758 33.52905273 C212.70556016 34.44570035 214.73212362 35.34335996 216.75976562 36.24023438 C235.18495313 44.49398269 235.18495313 44.49398269 238.75 53.5 C239.02871636 56.33915497 239.15384718 58.90213535 239.09375 61.73046875 C239.08484741 62.51520065 239.07594482 63.29993256 239.06677246 64.10844421 C238.8897411 71.99188442 237.82657299 79.69485077 236.61129761 87.474823 C234.89517276 98.57853782 233.25367741 109.68217093 233.1875 120.9375 C233.16623047 122.14950073 233.16623047 122.14950073 233.14453125 123.38598633 C233.23475273 128.54834674 234.4457897 131.56257866 237.75 135.5 C239.83417737 137.34570174 239.83417737 137.34570174 242.1875 138.8125 C243.04988281 139.38742188 243.91226563 139.96234375 244.80078125 140.5546875 C246.26064453 141.51761719 246.26064453 141.51761719 247.75 142.5 C250.13257671 144.13495678 252.5032623 145.7868746 254.875 147.4375 C256.00230993 148.21787314 257.12988941 148.99785712 258.2578125 149.77734375 C259.08023438 150.34582031 259.90265625 150.91429687 260.75 151.5 C259.15290678 155.38163524 256.65204249 157.87064313 253.72119141 160.83520508 C253.21038528 161.35433472 252.69957916 161.87346436 252.17329407 162.4083252 C250.48813824 164.11752061 248.79546994 165.81901145 247.1015625 167.51953125 C245.92565354 168.70440677 244.74982252 169.88935964 243.57406616 171.0743866 C241.11136109 173.55356468 238.64431075 176.02832984 236.17480469 178.50073242 C233.00628675 181.6746513 229.85426338 184.86443304 226.7059269 188.05835438 C224.28487469 190.50908584 221.85270907 192.94854951 219.41727829 195.38498497 C218.24975017 196.55672878 217.08635819 197.73260864 215.92717361 198.91260719 C214.30884779 200.55767445 212.67559876 202.18632343 211.03759766 203.81176758 C210.11097321 204.74346268 209.18434875 205.67515778 208.22964478 206.63508606 C205.75 208.5 205.75 208.5 203.53013611 208.35507202 C201.62343448 207.43920542 199.90508788 206.45620949 198.15234375 205.26953125 C197.44754883 204.80329346 196.74275391 204.33705566 196.01660156 203.85668945 C195.24799805 203.34710693 194.47939453 202.83752441 193.6875 202.3125 C131.28955543 162.08675563 53.12938229 146.4832334 -19.75976562 161.55224609 C-31.81678216 164.17854362 -43.60826528 167.41456333 -55.25 171.5 C-55.91966797 171.73154785 -56.58933594 171.9630957 -57.27929688 172.20166016 C-81.63234382 180.69649143 -105.31536147 192.37579175 -126.25 207.5 C-127.1469458 208.14654541 -127.1469458 208.14654541 -128.06201172 208.80615234 C-139.05847482 216.77551454 -150.05531039 225.07413178 -159.5234375 234.8515625 C-162.25 237.5 -162.25 237.5 -164.25 237.5 C-164.25 238.16 -164.25 238.82 -164.25 239.5 C-166.125 241.625 -166.125 241.625 -168.25 243.5 C-168.91 243.5 -169.57 243.5 -170.25 243.5 C-170.51683594 244.09683594 -170.78367188 244.69367188 -171.05859375 245.30859375 C-172.27486932 247.54574324 -173.45357259 248.84420067 -175.3125 250.5625 C-180.06657467 255.18888258 -184.1307211 260.3102506 -188.25 265.5 C-189.03375 266.46679688 -189.8175 267.43359375 -190.625 268.4296875 C-221.01583741 306.71045385 -238.65739101 353.7711091 -247.25 401.5 C-247.41661133 402.40927246 -247.58322266 403.31854492 -247.75488281 404.25537109 C-256.5077136 454.2443643 -246.80388615 503.21926045 -230.02978516 550.30859375 C-228.94140275 553.36724137 -227.86705889 556.42948225 -226.8125 559.5 C-226.50441406 560.386875 -226.19632813 561.27375 -225.87890625 562.1875 C-225.25 564.5 -225.25 564.5 -225.25 568.5 C-226.49366333 568.75523437 -226.49366333 568.75523437 -227.76245117 569.015625 C-246.45894725 572.90464099 -264.38357877 577.23732078 -281.67633057 585.6192627 C-295.5172557 592.08954804 -307.95561146 592.56007562 -323.046875 592.28125 C-325.46207788 592.26628698 -327.87730542 592.25491924 -330.2925415 592.24694824 C-336.57958732 592.21673427 -342.8651006 592.13844177 -349.15155029 592.04931641 C-355.59431235 591.96675488 -362.0373276 591.9307879 -368.48046875 591.890625 C-381.07095773 591.80541343 -393.6603965 591.67087518 -406.25 591.5 C-406.32026366 577.46090955 -406.37287301 563.4218466 -406.40543652 549.38261604 C-406.4210682 542.86308808 -406.4422611 536.34367856 -406.47631836 529.82421875 C-406.50900049 523.52833777 -406.52687179 517.23257046 -406.53463173 510.93661118 C-406.54015932 508.53894131 -406.55095328 506.14127741 -406.56719017 503.74365616 C-406.58908172 500.37600687 -406.59196198 497.00882268 -406.59057617 493.64111328 C-406.601362 492.65783554 -406.61214783 491.6745578 -406.6232605 490.66148376 C-406.58844497 482.80273983 -405.8351626 474.78099225 -400.1875 468.875 C-390.60701138 461.47893159 -377.90470735 457.73444263 -366.74316406 453.42407227 C-353.30887768 448.30290276 -353.30887768 448.30290276 -340.25 442.3125 C-339.156875 441.76207031 -338.06375 441.21164062 -336.9375 440.64453125 C-332.42602978 437.04453539 -330.66044963 433.22906298 -329.80419922 427.53588867 C-329.51249556 424.08611991 -329.33269396 420.64647758 -329.1875 417.1875 C-328.72297102 408.7348296 -328.11819812 400.46129683 -326.625 392.125 C-324.00963692 378.70727351 -324.00963692 378.70727351 -326.625 365.6875 C-334.21203408 355.2617797 -346.37468839 348.34728852 -356.8203125 341.171875 C-382.9053522 323.2226837 -382.9053522 323.2226837 -385.25 315.5 C-387.5247468 299.41090545 -378.6778695 283.72737642 -372.25 269.5 C-371.89325195 268.70432617 -371.53650391 267.90865234 -371.16894531 267.08886719 C-364.37425691 252.10981329 -364.37425691 252.10981329 -357.25 247.5 C-346.45841451 243.90280484 -332.81214081 246.87361374 -321.83526611 248.63870239 C-310.7224046 250.40529432 -299.64820867 251.99971301 -288.375 252.0625 C-287.51559814 252.07667969 -286.65619629 252.09085938 -285.77075195 252.10546875 C-280.49101755 252.01910156 -277.34512634 251.09643617 -273.25 247.5 C-271.51503271 245.22215585 -269.99641879 243.04460888 -268.5 240.625 C-267.62803954 239.27231593 -266.75429774 237.92077871 -265.87890625 236.5703125 C-265.44078613 235.8887207 -265.00266602 235.20712891 -264.55126953 234.50488281 C-258.53954773 225.24254521 -251.92273077 216.68505256 -244.53979492 208.47265625 C-244.0110376 207.88097656 -243.48228027 207.28929687 -242.9375 206.6796875 C-242.46699219 206.16132324 -241.99648437 205.64295898 -241.51171875 205.10888672 C-238.55215768 201.33498821 -237.74940764 198.05025054 -237.87524414 193.21313477 C-239.4629206 181.71877094 -245.88378676 170.37763007 -250.75 159.9375 C-265.29500639 128.65316651 -265.29500639 128.65316651 -263.25 119.5 C-260.64982084 114.9451618 -257.3475595 111.27862321 -253.625 107.625 C-253.09503418 107.10107666 -252.56506836 106.57715332 -252.01904297 106.03735352 C-247.3603895 101.4939441 -242.41179081 97.45911596 -237.25 93.5 C-236.10863788 92.58326227 -234.96945277 91.66380991 -233.83203125 90.7421875 C-227.58955898 85.70834264 -221.51809597 80.99819572 -214.25 77.5 C-213.59 77.17 -212.93 76.84 -212.25 76.5 C-203.04604465 75.26100601 -196.83236979 78.21124865 -189.46875 83.49609375 C-186.72078305 85.5960221 -184.00472273 87.72861588 -181.29785156 89.88085938 C-161.07135607 108.33264014 -161.07135607 108.33264014 -136.78515625 117.89453125 C-127.67491277 116.47675838 -119.39768478 111.66989036 -111.27197266 107.52050781 C-103.64642048 103.63541256 -95.81412195 100.29941819 -87.8515625 97.16015625 C-86.25441406 96.52400391 -86.25441406 96.52400391 -84.625 95.875 C-83.68398438 95.51148437 -82.74296875 95.14796875 -81.7734375 94.7734375 C-77.34186764 92.53707252 -75.28608573 90.09108436 -73.59765625 85.4765625 C-71.95283604 80.02496772 -71.29350375 74.52217533 -70.6875 68.875 C-70.56310547 67.7912207 -70.43871094 66.70744141 -70.31054688 65.59082031 C-69.58689561 59.13232652 -68.99683894 52.67039565 -68.48339844 46.19213867 C-66.36083491 19.43584891 -66.36083491 19.43584891 -59.25 11.5 C-52.94783751 6.4308693 -45.04205236 5.77711753 -37.25 4.5 C-36.24694824 4.32936035 -35.24389648 4.1587207 -34.21044922 3.98291016 C-11.45327064 0.15029897 -11.45327064 0.15029897 0 0 Z " fill="#363435" transform="translate(406.25,0.5)"/>
<path d="M0 0 C134.64 0 269.28 0 408 0 C408 0.33 408 0.66 408 1 C407.30253662 1.06993164 406.60507324 1.13986328 405.88647461 1.21191406 C393.31232057 2.49165289 380.77475558 3.86955902 368.3125 6 C367.38880615 6.1537207 366.4651123 6.30744141 365.51342773 6.46582031 C357.69755495 7.85690886 349.99384605 9.3415386 345 16 C340.52434633 24.3899013 340.04715067 33.65675226 339.26074219 42.94433594 C338.73440746 49.11250586 338.14932935 55.27484718 337.5625 61.4375 C337.39705688 63.32045776 337.39705688 63.32045776 337.22827148 65.24145508 C335.09851345 87.74902371 335.09851345 87.74902371 329 94 C324.39944455 96.65130754 319.44250663 98.43687381 314.5078125 100.36328125 C313.28835938 100.84152344 312.06890625 101.31976563 310.8125 101.8125 C310.184646 102.05798584 309.55679199 102.30347168 308.90991211 102.55639648 C304.06174258 104.48772149 299.40232168 106.70122417 294.75 109.0625 C293.74199341 109.57272705 293.74199341 109.57272705 292.71362305 110.09326172 C289.7725676 111.58565133 286.83485669 113.08444356 283.8984375 114.5859375 C276.60312488 118.14111802 270.25676507 120.24490299 262.2734375 117.91015625 C257.21740548 115.8886886 253.1101973 112.72751286 248.8125 109.4375 C247.97879883 108.81125732 247.14509766 108.18501465 246.28613281 107.53979492 C243.84876831 105.70425172 241.42215372 103.85555292 239 102 C238.37335449 101.52014648 237.74670898 101.04029297 237.10107422 100.54589844 C234.4617127 98.52028899 231.82840726 96.48687082 229.1953125 94.453125 C225.52520779 91.62925416 221.8361924 88.8321627 218.125 86.0625 C217.51817383 85.60141846 216.91134766 85.14033691 216.28613281 84.6652832 C209.28094282 79.47486443 202.85007164 76.80594272 194 78 C185.99102954 80.24953154 179.36517921 86.87593301 173 92 C172.31099609 92.55075195 171.62199219 93.10150391 170.91210938 93.66894531 C153.90175941 105.59047285 153.90175941 105.59047285 143.59375 122.26953125 C143.38088019 128.04362487 144.35173027 132.50012505 146.5546875 137.84375 C146.81994232 138.48919266 147.08519714 139.13463531 147.35848999 139.79963684 C150.87064144 148.24602581 154.75414296 156.53052689 158.61914062 164.81958008 C171.0890168 191.61321195 171.0890168 191.61321195 169 200 C166.29806565 204.5889001 162.96407836 208.42564471 159.4375 212.375 C152.01731819 220.85814685 145.81382977 230.08305007 139.7109375 239.5390625 C139.02257812 240.59867188 138.33421875 241.65828125 137.625 242.75 C136.74714844 244.13445312 136.74714844 244.13445312 135.8515625 245.546875 C133.39937277 248.79576772 130.64636047 251.17681977 127 253 C111.81727331 254.10938504 97.1319364 252.18200332 82.18212891 249.77880859 C74.73519714 248.6057965 67.37705701 247.73152941 59.83203125 247.59375 C59.14815842 247.56970093 58.46428558 247.54565186 57.75968933 247.52087402 C52.35050778 247.52254215 49.36586756 249.05617526 45 252 C37.4764399 260.00186203 34.02457856 272.19586214 29.8125 282.1875 C29.38437012 283.19659424 28.95624023 284.20568848 28.51513672 285.24536133 C21.72928501 301.15928445 21.72928501 301.15928445 22.62109375 318.0703125 C27.02301579 326.79590019 37.21706628 332.39489754 45 337.6875 C79.05621111 361.16863334 79.05621111 361.16863334 82 370 C82.64817753 378.57588726 81.71421636 386.55723385 80.20581055 394.96020508 C78.72194332 403.68513771 78.28149045 412.47045745 77.91064453 421.30517578 C77.49923117 428.86983865 76.88440682 435.24754755 71.16015625 440.77734375 C59.7507693 447.08756335 47.49973743 451.83449669 35.39453125 456.625 C34.28859619 457.06295898 33.18266113 457.50091797 32.04321289 457.95214844 C29.90314349 458.79554742 27.76052115 459.63250705 25.61499023 460.46191406 C12.58809054 465.40292869 12.58809054 465.40292869 3 475 C2.08079989 477.6753561 1.52972901 480.20688343 1 483 C0.67 483 0.34 483 0 483 C0 323.61 0 164.22 0 0 Z " fill="#FEFEFE" transform="translate(0,0)"/>
<path d="M0 0 C4.2480021 -0.04480939 8.49595483 -0.07405376 12.74410629 -0.10121536 C13.960806 -0.11646035 15.1775057 -0.13170534 16.4310751 -0.1474123 C17.53422967 -0.15173991 18.63738424 -0.15606752 19.77396774 -0.16052628 C20.71788281 -0.16843909 21.66179789 -0.17635191 22.63431644 -0.18450451 C25.55121795 0.07671875 27.65235668 0.68004318 30.24093246 2.04893112 C30.57093246 3.03893112 30.90093246 4.02893112 31.24093246 5.04893112 C25.83084594 11.10741753 19.8158301 12.68023349 12.24093246 15.04893112 C11.3527684 15.33768112 10.46460434 15.62643112 9.54952621 15.92393112 C-7.3053179 20.98829743 -25.58557317 22.0535969 -43.00906754 23.86143112 C-44.20607285 23.98699387 -45.40307816 24.11255661 -46.63635635 24.24192429 C-68.42603359 26.51856674 -90.24085704 28.46267367 -112.07156754 30.29893112 C-112.81608673 30.36167347 -113.56060593 30.42441582 -114.32768631 30.48905945 C-130.64723385 31.86301959 -146.96951682 33.1641848 -163.30708694 34.30779648 C-175.27883147 35.14718591 -187.24334916 36.07623205 -199.20829296 37.00675106 C-212.39102822 38.03187185 -225.57499604 39.04116141 -238.75906754 40.04893112 C-239.79861588 40.12840988 -240.83816422 40.20788864 -241.90921402 40.28977585 C-265.80013742 42.11154836 -289.7052126 43.59320604 -313.62467194 44.98448563 C-339.03779013 46.46335762 -364.42969081 48.18134723 -389.82156754 49.98643112 C-418.9381258 52.05537038 -448.05913189 53.98498279 -477.19656754 55.73643112 C-478.06448803 55.78863564 -478.93240852 55.84084015 -479.82662964 55.89462662 C-487.37542512 56.34851368 -494.92430308 56.80101695 -502.47328568 57.25178146 C-515.19524517 58.0118348 -527.91550785 58.79628636 -540.63406754 59.61143112 C-541.51934128 59.66808945 -542.40461502 59.72474777 -543.31671524 59.78312302 C-554.79874655 60.51966588 -566.27905495 61.28162962 -577.75906754 62.04893112 C-579.07206833 62.1366629 -580.38506912 62.22439468 -581.73785782 62.314785 C-588.13293122 62.74233735 -594.5278854 63.17158813 -600.92264175 63.60386276 C-612.11183925 64.35748826 -623.30125217 65.0875072 -634.49646378 65.74653244 C-653.28965356 66.85341357 -672.06265087 68.18658515 -690.83523941 69.59849167 C-694.29140575 69.85830409 -697.74777658 70.11506914 -701.20438004 70.36899948 C-718.1912227 71.6173796 -735.17298745 72.89650153 -752.12234879 74.58799362 C-753.26943314 74.69880768 -754.41651749 74.80962173 -755.59836197 74.92379379 C-778.80012366 77.34496391 -800.34393549 88.08441852 -821.70047379 96.92002487 C-909.39960587 133.12211448 -909.39960587 133.12211448 -948.94656754 117.79893112 C-961.89908277 111.98316601 -977.27907617 101.2962041 -983.75906754 88.04893112 C-983.42906754 87.05893112 -983.09906754 86.06893112 -982.75906754 85.04893112 C-981.97145035 85.3866655 -981.18383316 85.72439987 -980.37234879 86.07236862 C-954.77433616 96.55392172 -924.70897951 93.43136664 -899.44559097 83.10313034 C-869.25169796 70.25453524 -847.67368065 48.13452279 -834.75906754 18.04893112 C-834.06540434 16.48079076 -833.36974039 14.91353436 -832.67239761 13.34702682 C-832.31366058 12.54086426 -831.95492355 11.73470169 -831.5853157 10.90410995 C-831.31265381 10.29190094 -831.03999191 9.67969193 -830.75906754 9.04893112 C-798.61170805 8.52270066 -766.46374105 8.08332136 -734.31302261 7.82798386 C-732.65554845 7.81482028 -732.65554845 7.81482028 -730.96458995 7.80139077 C-726.35742204 7.76496381 -721.75025206 7.72881039 -717.14308006 7.69290537 C-671.9694069 7.34039743 -626.79784053 6.89282903 -581.62625504 6.33018112 C-579.72282872 6.30654027 -579.72282872 6.30654027 -577.78094935 6.28242183 C-555.81552806 6.00955118 -533.85018631 5.73046892 -511.88486099 5.44999313 C-493.81953122 5.21939915 -475.75416887 4.99159663 -457.68875504 4.76768112 C-456.41903319 4.75189137 -455.14931135 4.73610161 -453.84111309 4.71983337 C-411.426714 4.19316473 -369.01236756 3.80792532 -326.59604239 3.48759913 C-296.20814542 3.25809236 -265.82364248 3.01426546 -235.43923759 2.49056816 C-195.08281849 1.7968542 -154.7211714 1.47488608 -114.36090457 1.08613932 C-105.14598119 0.99721815 -95.93108325 0.90585354 -86.71618968 0.81390089 C-76.5665825 0.71267854 -66.41695936 0.61314893 -56.26732826 0.51435661 C-52.02454649 0.47303107 -47.78177085 0.43114539 -43.53899956 0.38875771 C-33.11083367 0.2849585 -22.68267822 0.18663819 -12.25428957 0.10787088 C-8.16945829 0.07696639 -4.08472189 0.04315742 0 0 Z " fill="#363435" transform="translate(1215.7590675354004,444.9510688781738)"/>
<path d="M0 0 C13.45553692 7.93602075 16.10901398 25.74715907 19.7644043 39.69506836 C20.5072977 42.52782719 21.26340187 45.35681894 22.02148438 48.18554688 C22.50076403 49.9893805 22.97930722 51.79341001 23.45703125 53.59765625 C23.68195755 54.44135269 23.90688385 55.28504913 24.1386261 56.15431213 C24.34271591 56.93620407 24.54680573 57.71809601 24.75708008 58.52368164 C25.02757927 59.5519381 25.02757927 59.5519381 25.30354309 60.60096741 C25.6875 62.4375 25.6875 62.4375 25.6875 65.4375 C27.54094517 63.82738422 29.38982351 62.21238218 31.23413086 60.59179688 C32.72874247 59.27938242 34.22686978 57.97093966 35.73120117 56.66967773 C45.23803599 48.30701707 53.99856664 39.16219306 62.88061523 30.1484375 C93.8633338 -1.26267576 93.8633338 -1.26267576 112.0625 -1.9375 C120.84642009 -1.78622698 127.56433815 1.17193904 133.6875 7.4375 C138.02807703 13.36015651 138.75025309 19.28398849 137.6875 26.4375 C136.8534751 28.98823769 135.98019825 31.44975653 135 33.94140625 C134.73015289 34.64302383 134.46030579 35.34464142 134.18228149 36.06752014 C131.55409893 42.8681116 128.8249563 49.62799731 126.0625 56.375 C125.51030115 57.72851669 124.9583078 59.08211724 124.40649414 60.43579102 C123.18100681 63.44080739 121.95405968 66.44522238 120.72607422 69.44921875 C118.5139827 74.86091126 116.3057863 80.27419015 114.09765625 85.6875 C109.84716131 96.10649309 105.59378966 106.52431005 101.33984375 116.94189453 C96.93393244 127.73170307 92.52941679 138.52208133 88.125 149.3125 C87.49541885 150.85487335 87.49541885 150.85487335 86.8531189 152.42840576 C80.45808738 168.09546185 74.06746189 183.76430025 67.6875 199.4375 C68.79150146 199.41655273 69.89550293 199.39560547 71.03295898 199.37402344 C75.16466077 199.30112393 79.29630677 199.2555204 83.4284668 199.21777344 C85.21013986 199.19777095 86.99174823 199.17055977 88.77319336 199.13574219 C109.32396686 198.7444085 109.32396686 198.7444085 117.6875 206.0625 C121.26637692 212.10185481 121.33568303 217.89494761 119.625 224.625 C116.75857751 232.78918548 111.98426837 236.74217634 104.34765625 240.4921875 C97.5189224 242.91884475 90.31988825 242.59789344 83.1640625 242.60546875 C82.0633139 242.60879715 80.96256531 242.61212555 79.82846069 242.61555481 C77.50706396 242.62060235 75.18566002 242.62296381 72.86425781 242.62280273 C69.33125751 242.6249884 65.79857012 242.64316531 62.265625 242.66210938 C60.00260523 242.66504399 57.73958398 242.66702833 55.4765625 242.66796875 C53.90583481 242.67874702 53.90583481 242.67874702 52.30337524 242.68974304 C41.48821574 242.65639493 31.06459802 240.91725777 22.60546875 233.6484375 C16.6699216 227.37550136 14.61787729 221.02892 14.125 212.5 C14.31948004 207.00531297 15.41501909 202.4020816 17.1875 197.2578125 C17.45155136 196.48044235 17.71560272 195.7030722 17.98765564 194.90214539 C21.26285729 185.48434948 25.25564113 176.37942303 29.25 167.25 C30.45831299 164.46482608 31.66384934 161.6784612 32.8691864 158.89199829 C33.67216605 157.03599023 34.47596257 155.18033535 35.28059387 153.32504272 C38.755321 145.30725847 42.14166592 137.25456754 45.5 129.1875 C51.74902042 114.20653624 58.19555996 99.31452807 64.6875 84.4375 C63.90358887 85.22213623 63.11967773 86.00677246 62.31201172 86.81518555 C60.7786832 88.34723035 59.24158213 89.87554873 57.6953125 91.39453125 C53.7428507 95.28959215 50.01898811 99.29678934 46.40234375 103.50390625 C44.18491186 106.00419961 41.81691932 108.32343237 39.42578125 110.65625 C37.62376618 112.50280926 36.01192126 114.44405959 34.375 116.4375 C28.73064873 122.97172648 21.31350288 128.66731885 12.5703125 129.68359375 C8.00377143 129.93729048 4.23642928 129.54295771 0.30053711 126.9375 C-6.49703707 120.61628073 -8.74656929 111.54138512 -10.6875 102.8125 C-11.07615234 101.16314453 -11.07615234 101.16314453 -11.47265625 99.48046875 C-12.10136287 96.80264427 -12.71424778 94.12226103 -13.3125 91.4375 C-15.41714123 96.62480758 -17.52117543 101.81236116 -19.625 107 C-19.95484894 107.81325745 -20.28469788 108.62651489 -20.62454224 109.4644165 C-25.14599162 120.61314033 -29.65805177 131.7656075 -34.16055298 142.92199707 C-38.15757027 152.82483769 -42.16336461 162.72411269 -46.17260742 172.62200928 C-47.26914559 175.33041628 -48.36423549 178.03940451 -49.45898438 180.74853516 C-96.30410827 296.60205254 -96.30410827 296.60205254 -143.0078125 317.15625 C-155.81478927 322.1216027 -167.74077493 323.63176479 -181.375 323.6875 C-183.22641602 323.7184375 -183.22641602 323.7184375 -185.11523438 323.75 C-207.60282307 323.84413957 -226.24234573 315.92189588 -242.3125 300.4375 C-243.15683594 299.633125 -244.00117188 298.82875 -244.87109375 298 C-253.00773857 290.08467191 -253.00773857 290.08467191 -253.6484375 284.51953125 C-253.77873834 273.61335089 -251.38164737 267.21387641 -244.09375 259.1640625 C-239.36604842 254.58150965 -235.11866074 252.66751318 -228.5 252.125 C-217.5966172 252.49811956 -210.01064771 258.469215 -202.75 266.125 C-196.11701492 272.94138559 -187.37801995 275.44260121 -178.0625 275.75 C-162.93848418 275.41484175 -151.63368797 269.14939541 -141.3125 258.4375 C-121.63725795 235.36321281 -110.32019569 204.3158965 -99.1875 176.5 C-98.44828228 174.66241778 -97.70860767 172.8250193 -96.96850586 170.98779297 C-95.46639925 167.25800498 -93.966074 163.52750912 -92.46728516 159.79638672 C-89.28545651 151.87877189 -86.08138573 143.97019451 -82.875 136.0625 C-82.57454773 135.32105743 -82.27409546 134.57961487 -81.96453857 133.81570435 C-76.01973996 119.14657417 -70.02481121 104.49806539 -64.02392578 89.85180664 C-59.71367232 79.32839451 -55.42808495 68.7954718 -51.16967773 58.25097656 C-48.23073635 50.97433983 -45.27791917 43.70338539 -42.3125 36.4375 C-41.61060547 34.71732666 -41.61060547 34.71732666 -40.89453125 32.96240234 C-39.69191176 30.03214592 -38.47507634 27.10842553 -37.25 24.1875 C-36.92829834 23.4025415 -36.60659668 22.61758301 -36.27514648 21.80883789 C-32.42812075 12.76215169 -27.09938424 3.67517756 -17.9296875 -0.69921875 C-12.11078893 -2.61858679 -5.62043134 -2.51838558 0 0 Z " fill="#363435" transform="translate(450.3125,201.5625)"/>
<path d="M0 0 C9.57704812 7.89161367 15.936114 18.66572406 18 31 C18.28315888 34.27674883 18.3341674 37.5247077 18.3125 40.8125 C18.30512817 42.13580322 18.30512817 42.13580322 18.29760742 43.48583984 C18.17977944 50.04674368 17.47708522 55.87300555 15 62 C14.69449219 62.82242188 14.38898438 63.64484375 14.07421875 64.4921875 C9.19534912 75.88213042 -0.73790062 84.27570933 -12 89 C-24.10118399 93.53611492 -35.4102596 94.15403359 -48.2265625 94.09765625 C-49.45539154 94.0962413 -50.68422058 94.09482635 -51.95028687 94.09336853 C-55.84188358 94.08780959 -59.73342093 94.0752648 -63.625 94.0625 C-66.27734291 94.05747969 -68.92968674 94.05291772 -71.58203125 94.04882812 C-78.05470746 94.03785364 -84.52734949 94.02115684 -91 94 C-90.40111353 95.45303911 -89.79082401 96.9013817 -89.17578125 98.34765625 C-88.83716064 99.15468994 -88.49854004 99.96172363 -88.1496582 100.79321289 C-85.88046992 105.1489557 -82.28612414 106.56231475 -77.82147217 108.08169556 C-73.70488467 109.07091658 -69.87173535 109.27869809 -65.66894531 109.25537109 C-64.46496597 109.26080177 -64.46496597 109.26080177 -63.23666382 109.26634216 C-61.50433737 109.2732021 -59.77198947 109.27574802 -58.03964996 109.27439499 C-55.28871767 109.27342358 -52.53816957 109.28644535 -49.78729248 109.30337524 C-41.96955332 109.34945455 -34.15185481 109.37423324 -26.33398438 109.38085938 C-21.54059939 109.38590005 -16.7476168 109.41027819 -11.95436859 109.44618607 C-10.13811418 109.45592434 -8.321804 109.45834896 -6.50553131 109.45301437 C15.87425065 109.39037271 15.87425065 109.39037271 23.01092529 115.80844116 C28.08579557 121.32344058 28.35484682 126.3137862 28.2734375 133.640625 C27.66826231 141.07563451 24.4193331 146.4972832 18.9765625 151.5 C7.6291688 160.11146083 -6.9090696 159.30173783 -20.421875 159.265625 C-22.2125046 159.26697539 -24.00313385 159.26891902 -25.79376221 159.27142334 C-29.53572094 159.27436006 -33.27758374 159.27012595 -37.01953125 159.26074219 C-41.77772089 159.24938177 -46.53568397 159.25589477 -51.2938652 159.26788712 C-54.9899867 159.2751735 -58.68605604 159.2727864 -62.38217926 159.26763153 C-64.13457517 159.26631197 -65.88697607 159.26788223 -67.63936615 159.27259064 C-80.73336062 159.30004649 -93.98163975 159.22466784 -106.3125 154.25 C-106.98273193 153.98832031 -107.65296387 153.72664062 -108.34350586 153.45703125 C-113.75696321 151.26463675 -118.42928564 148.61095937 -123 145 C-123.60972656 144.55140625 -124.21945312 144.1028125 -124.84765625 143.640625 C-136.80190483 134.28741072 -142.83915131 119.04139687 -144.77294922 104.34521484 C-147.62289868 74.90799489 -141.00066704 46.19658487 -122.2722168 22.99682617 C-93.46514472 -11.6002163 -38.87367282 -31.52092221 0 0 Z " fill="#363435" transform="translate(1059,279)"/>
<path d="M0 0 C5.15553659 4.01744905 9.64874861 9.04482805 10.7890625 15.625 C11.46254717 30.37076955 4.25980516 44.18280788 -2.6875 56.875 C-1.87667969 56.84019531 -1.06585937 56.80539062 -0.23046875 56.76953125 C9.43467472 56.53324718 19.13612121 57.10391508 26.94140625 63.44921875 C31.03002903 67.7009205 31.51985326 72.08982854 31.75 77.75 C31.51600127 86.25904465 28.41754165 92.90562594 22.3125 98.875 C8.89169655 108.5678025 -6.94317495 107.24740944 -22.6875 106.875 C-22.8417041 107.44460449 -22.9959082 108.01420898 -23.15478516 108.60107422 C-25.2496677 115.97793812 -28.0794354 122.94308483 -31.0625 130 C-32.12999508 132.54717917 -33.19378307 135.0959028 -34.2578125 137.64453125 C-34.67117859 138.63271095 -34.67117859 138.63271095 -35.09289551 139.64085388 C-38.43167046 147.63305541 -41.68432671 155.66016871 -44.9375 163.6875 C-45.51609186 165.11410374 -46.0947046 166.54069901 -46.67333984 167.96728516 C-48.01239611 171.2694509 -49.35031537 174.57207584 -50.6875 177.875 C-49.7402002 177.88958252 -48.79290039 177.90416504 -47.81689453 177.91918945 C-44.25677562 177.9807358 -40.69736791 178.05497463 -37.13769531 178.13745117 C-35.60556791 178.17042955 -34.07332691 178.19854311 -32.54101562 178.22143555 C-13.41218147 178.51486087 -13.41218147 178.51486087 -4.8125 183.5625 C-0.62860953 188.11555727 1.53668619 192.57791903 1.75 198.8125 C1.35212279 206.93168173 -0.98054542 213.14965084 -6.609375 219.0859375 C-16.55873523 227.65136416 -29.06269067 228.18494251 -41.59765625 228.140625 C-43.40888222 228.14349518 -43.40888222 228.14349518 -45.25669861 228.14642334 C-47.79556488 228.14777742 -50.33443826 228.14413562 -52.87329102 228.13574219 C-56.74185839 228.12502256 -60.60996243 228.13566919 -64.47851562 228.1484375 C-66.95573018 228.14711595 -69.43294445 228.14455365 -71.91015625 228.140625 C-73.05726578 228.14467346 -74.20437531 228.14872192 -75.38624573 228.15289307 C-87.58430668 228.08222581 -97.86613568 225.91848442 -107.1484375 217.58984375 C-112.56349876 211.55631103 -114.07140588 204.32912287 -113.95336914 196.44970703 C-113.15090829 185.66032976 -108.46066649 175.34319775 -104.25 165.5 C-103.45944149 163.62567686 -102.67196155 161.75007846 -101.88461304 159.87440491 C-101.33668081 158.56946132 -100.78786496 157.26488843 -100.2381897 155.9606781 C-96.98411101 148.23169396 -93.83645673 140.45975493 -90.6875 132.6875 C-90.14273129 131.34518571 -89.59789256 130.00289983 -89.05297852 128.66064453 C-86.24487181 121.73991146 -83.45185721 114.81333334 -80.6875 107.875 C-81.533125 107.77703125 -82.37875 107.6790625 -83.25 107.578125 C-91.60395741 106.47692152 -98.82342682 105.38328039 -104.625 98.875 C-108.62210784 93.06102496 -108.16460771 86.74004988 -107.6875 79.875 C-106.25682999 72.68527698 -102.19866922 67.27650725 -96.203125 63.17578125 C-87.05558985 57.83971908 -78.72000874 56.8670701 -68.34765625 56.33203125 C-67.5136731 56.28743774 -66.67968994 56.24284424 -65.82043457 56.19689941 C-63.77621589 56.08784514 -61.73186989 55.981182 -59.6875 55.875 C-59.26976318 54.80652832 -58.85202637 53.73805664 -58.42163086 52.63720703 C-56.84885739 48.62487095 -55.2586028 44.61964861 -53.66333008 40.61621094 C-52.97895165 38.89182833 -52.29915024 37.16562112 -51.62426758 35.4375 C-46.08006671 21.25485144 -39.83614816 5.84173316 -25.125 -1.125 C-17.75057064 -3.38035868 -6.78573762 -4.0068165 0 0 Z " fill="#363435" transform="translate(892.6875,210.125)"/>
<path d="M0 0 C10.11551415 8.68595133 16.40932094 19.39954988 17.65869141 32.72509766 C18.6608791 46.32621638 16.6480025 57.97887191 8.40234375 69.16796875 C3.49500048 74.6089711 -2.55709884 77.45546615 -9.8046875 78.34375 C-16.46060268 78.56499926 -22.6921425 77.99007207 -27.7890625 73.3828125 C-31.85348526 68.89461106 -33.07453628 65.49326752 -33.2109375 59.4453125 C-33.23929688 58.58292969 -33.26765625 57.72054687 -33.296875 56.83203125 C-33.34872701 55.03535904 -33.39306645 53.23845343 -33.4296875 51.44140625 C-33.61385995 46.29225163 -33.97135016 42.36285682 -37 38 C-42.20470532 33.86942011 -47.65223193 34.29469244 -54 35 C-63.51397419 37.39734056 -70.56358346 44.44661213 -75.8125 52.4375 C-81.68256141 62.27087433 -84.17363005 70.43860008 -84.25 81.875 C-84.270625 82.63941406 -84.29125 83.40382813 -84.3125 84.19140625 C-84.35483128 90.42468668 -83.32448872 95.76255053 -79.59765625 100.953125 C-71.2659704 107.99159752 -60.15802055 110.09555254 -49.49487305 110.15771484 C-47.58710335 110.17310806 -47.58710335 110.17310806 -45.64079285 110.18881226 C-44.63207154 110.19396914 -44.63207154 110.19396914 -43.60297203 110.19923019 C-41.47861655 110.21112281 -39.35445507 110.23060097 -37.23017883 110.25234985 C-31.19363963 110.31361871 -25.15712415 110.36790685 -19.12036133 110.40136719 C-15.41741568 110.42243528 -11.71483189 110.45782938 -8.0120945 110.50212479 C-6.6100779 110.51618384 -5.20799737 110.52498415 -3.80591393 110.52817917 C5.27300101 110.55105912 13.87957034 110.63600017 21.375 116.3125 C26.01347806 121.06141801 27.20701765 124.68102735 27.5 131.25 C27.2879662 139.33494098 24.78618485 145.70043535 18.875 151.3125 C9.80060338 158.28670875 0.14715013 160.15235916 -11.0715332 160.14526367 C-12.23403091 160.15030159 -12.23403091 160.15030159 -13.42001343 160.15544128 C-15.96361934 160.16488355 -18.50715894 160.16689102 -21.05078125 160.16796875 C-22.83286058 160.17118607 -24.61493965 160.1745505 -26.39701843 160.17805481 C-30.12658297 160.18402932 -33.85612438 160.18589644 -37.58569336 160.18530273 C-42.3432258 160.18520123 -47.10060862 160.19884942 -51.85810566 160.21607494 C-55.53776213 160.22724345 -59.21738299 160.22922045 -62.89705467 160.22869301 C-64.64997053 160.22986597 -66.40288752 160.23424896 -68.15578651 160.24202538 C-88.40913681 160.32346438 -103.95511097 156.79545972 -119.40625 142.82421875 C-126.20078761 135.90170184 -130.30273058 127.85908406 -134 119 C-134.45761719 117.90816406 -134.91523437 116.81632813 -135.38671875 115.69140625 C-138.33912165 106.89635339 -138.37450486 98.14491442 -138.4375 88.9375 C-138.4478125 87.68308105 -138.458125 86.42866211 -138.46875 85.13623047 C-138.22174993 58.90276431 -127.55848798 35.99322825 -110 17 C-109.15050781 16.07960938 -108.30101562 15.15921875 -107.42578125 14.2109375 C-80.71484474 -13.54830893 -32.05777129 -26.3940484 0 0 Z " fill="#363435" transform="translate(1233,278)"/>
<path d="M0 0 C2.22476877 -0.00269876 4.44953639 -0.00658436 6.67430115 -0.01159668 C11.32163803 -0.01747239 15.96866601 -0.00899005 20.6159668 0.00976562 C26.5528675 0.03256697 32.48904523 0.01941178 38.42591953 -0.00452423 C43.01492192 -0.01902287 47.6037547 -0.01435776 52.19276237 -0.00401306 C54.38108342 -0.00135771 56.56942021 -0.00457325 58.75772285 -0.01393127 C61.82269851 -0.02416539 64.88652526 -0.00850031 67.95141602 0.01367188 C69.28820152 0.00152649 69.28820152 0.00152649 70.6519928 -0.01086426 C79.54893817 0.10751928 86.96332979 2.97082645 93.7109375 8.7734375 C97.63821595 13.4611704 98.61479362 17.75832461 98.62109375 23.78125 C98.64042969 25.00328125 98.65976562 26.2253125 98.6796875 27.484375 C97.91465366 37.60471576 91.51178155 46.35450499 86.30859375 54.71875 C85.54568911 55.95809829 84.78357559 57.19793388 84.0222168 58.43823242 C82.48142884 60.94639131 80.93691767 63.45219096 79.38916016 65.95605469 C76.23110663 71.06883297 73.11500395 76.20703663 69.99609375 81.34375 C68.85315877 83.22153326 67.70993115 85.09913843 66.56640625 86.9765625 C66.00727539 87.89469727 65.44814453 88.81283203 64.87207031 89.75878906 C63.74641927 91.60709635 62.62076823 93.45540365 61.49511719 95.30371094 C52.43659662 110.17848045 43.39337128 125.06249316 34.35693359 139.95068359 C31.50534487 144.64879943 28.65308032 149.34650486 25.80078125 154.04418945 C24.39051568 156.36687701 22.98036562 158.68963463 21.5703125 161.01245117 C18.33746319 166.3378545 15.1040181 171.66289225 11.86790466 176.98631287 C10.39763777 179.40501519 8.92780192 181.82397934 7.45797729 184.24295044 C6.73662045 185.42983209 6.01504445 186.61658057 5.29324341 187.80319214 C1.204108 194.52566288 -2.85325337 201.26529935 -6.86108398 208.03662109 C-22.94674909 235.13671058 -22.94674909 235.13671058 -36.5234375 239.0625 C-43.29418268 240.44663871 -48.68750185 239.94929284 -54.81640625 236.53125 C-58.98517587 232.93094896 -62.25224516 229.25227184 -63.390625 223.76171875 C-63.77553585 213.42221688 -59.90302933 206.15297792 -54.81640625 197.53125 C-54.30706543 196.66677246 -53.79772461 195.80229492 -53.27294922 194.91162109 C-49.20667351 188.0646152 -45.02098579 181.29389253 -40.81640625 174.53125 C-39.73902201 172.78940957 -38.6621778 171.04723497 -37.5859375 169.3046875 C-35.46676816 165.87559387 -33.3439698 162.44878426 -31.21875 159.0234375 C-26.10294081 150.77271326 -21.02239375 142.50026545 -15.9375 134.23046875 C-13.1834302 129.75158831 -10.42539269 125.27518896 -7.6640625 120.80078125 C-1.0344439 110.05329923 5.55635883 99.28707084 12.02832031 88.44384766 C15.37985948 82.8392403 18.81180863 77.29123523 22.29574585 71.76815796 C25.77309119 66.23506312 29.14171956 60.63953541 32.49609375 55.03125 C33.04587891 54.1134375 33.59566406 53.195625 34.16210938 52.25 C35.50328356 50.01082223 36.84376421 47.77123252 38.18359375 45.53125 C37.39147491 45.52538376 36.59935608 45.51951752 35.78323364 45.51347351 C28.28090855 45.45532402 20.77890718 45.3831221 13.27687263 45.29553509 C9.42093156 45.25100149 5.56509202 45.21170917 1.70898438 45.18481445 C-2.01949174 45.15861005 -5.74757353 45.1180902 -9.47580338 45.06806374 C-10.89094219 45.05150985 -12.30614903 45.03992468 -13.7213707 45.03363609 C-32.73307347 44.94069219 -32.73307347 44.94069219 -40.31640625 39.15625 C-45.28366439 33.94062896 -45.25799299 28.68909437 -45.125 21.7578125 C-44.53610662 15.60052225 -42.1530819 11.54295141 -37.75390625 7.28125 C-26.4236047 -1.15033432 -13.45632078 -0.05760598 0 0 Z " fill="#363435" transform="translate(674.81640625,201.46875)"/>
<path d="M0 0 C0.33 0 0.66 0 1 0 C1.13051758 1.07781738 1.26103516 2.15563477 1.39550781 3.26611328 C1.89119859 7.33429291 2.4017964 11.40049502 2.91650391 15.46630859 C3.13562889 17.21321278 3.35091676 18.96060338 3.56201172 20.70849609 C5.20047953 40.25419426 5.20047953 40.25419426 14 57 C19.93150166 60.90358804 26.64111115 61.84456015 33.5625 62.5625 C34.57465576 62.67980469 35.58681152 62.79710937 36.62963867 62.91796875 C42.84407461 63.61771507 49.06788634 64.19533757 55.296875 64.74609375 C56.355933 64.84090782 56.355933 64.84090782 57.43638611 64.93763733 C60.91366524 65.24809938 64.39109877 65.54713473 67.87133789 65.82250977 C88.07590015 67.55230476 88.07590015 67.55230476 93.4375 73.0625 C96.55542003 77.32068792 98.21084334 82.07807877 100 87 C100.86389438 89.12953903 101.73909959 91.25452117 102.625 93.375 C103.02976562 94.35210938 103.43453125 95.32921875 103.8515625 96.3359375 C104.82412858 98.59202617 105.90128977 100.80257954 107 103 C71.69 103 36.38 103 0 103 C0 69.01 0 35.02 0 0 Z " fill="#FEFEFE" transform="translate(0,489)"/>
<path d="M0 0 C4.85627617 1.67080884 7.97179768 4.36181051 10.5 8.8125 C12.83949021 14.34409463 12.63545611 18.83197329 10.9375 24.625 C8.09485689 29.57670091 4.46873956 33.17708681 -1 35 C-7.36288814 35.79112286 -12.03107858 35.25289968 -17.30859375 31.5 C-21.58908302 27.7039079 -23.75949497 23.45315129 -24.3125 17.8125 C-23.81082693 11.69208851 -21.58085958 7.06478744 -16.875 3.0625 C-11.44450521 -0.83328974 -6.5666476 -0.70768383 0 0 Z " fill="#F8F8F8" transform="translate(1268,355)"/>
<path d="M0 0 C2.96309439 2.88078621 4.17150832 4.46799294 4.625 8.625 C4.25 12.1875 4.25 12.1875 2.5625 14.5 C-2.46325373 18.16744191 -7.03528886 18.465187 -13.11328125 18.3828125 C-13.90526413 18.3799826 -14.69724701 18.37715271 -15.51322937 18.37423706 C-18.02980999 18.36308863 -20.54602789 18.33799422 -23.0625 18.3125 C-24.77408338 18.30246329 -26.48567237 18.29333864 -28.19726562 18.28515625 C-32.38164906 18.26316681 -36.56576314 18.22867408 -40.75 18.1875 C-36.5160041 9.55346915 -30.99902645 3.34961074 -22.125 -0.6875 C-15.62781129 -2.84033832 -5.98124766 -3.83035564 0 0 Z " fill="#FCFCFC" transform="translate(1020.75,312.8125)"/>
<path d="M0 0 C4.85627617 1.67080884 7.97179768 4.36181051 10.5 8.8125 C12.83949021 14.34409463 12.63545611 18.83197329 10.9375 24.625 C8.09485689 29.57670091 4.46873956 33.17708681 -1 35 C-7.36288814 35.79112286 -12.03107858 35.25289968 -17.30859375 31.5 C-21.58908302 27.7039079 -23.75949497 23.45315129 -24.3125 17.8125 C-23.81082693 11.69208851 -21.58085958 7.06478744 -16.875 3.0625 C-11.44450521 -0.83328974 -6.5666476 -0.70768383 0 0 Z M-17.3125 8.5 C-20.14397449 12.69477702 -20.33763378 16.01990172 -20 21 C-18.17838655 26.16123812 -15.84011704 28.4868623 -11 31 C-6.82585525 32.13840311 -4.53883402 32.15793411 -0.375 30.9375 C3.35401446 28.79676948 6.18698923 26.93614181 8 23 C8.92458809 18.35604618 9.08371029 14.07865251 6.85546875 9.8046875 C3.14710344 5.12764628 -0.58911479 3.42636065 -6.5 2.6875 C-11.13421058 3.26677632 -14.16678184 5.09922361 -17.3125 8.5 Z " fill="#3D3C3C" transform="translate(1268,355)"/>
<path d="M0 0 C11.625 -0.25 11.625 -0.25 15 2 C15.1875 5.625 15.1875 5.625 15 9 C14.01 9.495 14.01 9.495 13 10 C13.309375 10.7425 13.61875 11.485 13.9375 12.25 C14.8094925 14.50692176 15.47667007 16.6450153 16 19 C13.6875 18.8125 13.6875 18.8125 11 18 C9.95107762 16.36368108 8.95093297 14.69514137 8 13 C5.93299345 11.67206394 5.93299345 11.67206394 4 11 C4 13.64 4 16.28 4 19 C2.68 19 1.36 19 0 19 C0 12.73 0 6.46 0 0 Z " fill="#3F3F3F" transform="translate(1254,363)"/>
<path d="M0 0 C2.64 0 5.28 0 8 0 C8.66 0.66 9.32 1.32 10 2 C9 3 9 3 6.4375 3.0625 C5.2309375 3.0315625 5.2309375 3.0315625 4 3 C4 4.65 4 6.3 4 8 C5.65 8 7.3 8 9 8 C8.67 8.99 8.34 9.98 8 11 C6.68 11 5.36 11 4 11 C4 13.64 4 16.28 4 19 C2.68 19 1.36 19 0 19 C0 12.73 0 6.46 0 0 Z " fill="#353535" transform="translate(1254,363)"/>
<path d="M0 0 C0.95261719 0.34933594 1.90523437 0.69867187 2.88671875 1.05859375 C4.15357779 1.51841666 5.4205087 1.97804162 6.6875 2.4375 C7.31333984 2.66759766 7.93917969 2.89769531 8.58398438 3.13476562 C12.03242308 4.38053667 15.3813479 5.39804449 19 6 C18.443125 6.268125 17.88625 6.53625 17.3125 6.8125 C13.87710021 8.57662422 10.74206894 10.25793106 8 13 C6.6578508 11.40320196 5.32652885 9.79729803 4 8.1875 C2.88625 6.84751953 2.88625 6.84751953 1.75 5.48046875 C0 3 0 3 0 0 Z " fill="#393839" transform="translate(232,530)"/>
<path d="M0 0 C1.32 0 2.64 0 4 0 C4.36504603 1.58086048 4.71660506 3.16483907 5.0625 4.75 C5.25972656 5.63171875 5.45695312 6.5134375 5.66015625 7.421875 C5.99825872 9.98679028 5.81158635 11.57091639 5 14 C4.34 14 3.68 14 3 14 C0.56574762 9.03006806 -0.34615998 5.65394631 0 0 Z " fill="#424142" transform="translate(1244,369)"/>
<path d="M0 0 C1.98 0 3.96 0 6 0 C6.5625 1.9375 6.5625 1.9375 7 4 C6 5 6 5 2.9375 5.0625 C1.4834375 5.0315625 1.4834375 5.0315625 0 5 C0 3.35 0 1.7 0 0 Z " fill="#F8F7F8" transform="translate(1258,366)"/>
<path d="M0 0 C0.66 0.33 1.32 0.66 2 1 C1.03049703 4.26105543 0.44238139 5.70507907 -2.4375 7.625 C-3.283125 8.07875 -4.12875 8.5325 -5 9 C-6.75149165 10.58245275 -6.75149165 10.58245275 -8 12 C-8.66 11.67 -9.32 11.34 -10 11 C-9.52949219 10.54109375 -9.05898438 10.0821875 -8.57421875 9.609375 C-3.96631602 5.08450705 -3.96631602 5.08450705 0 0 Z " fill="#403E3F" transform="translate(314,454)"/>
<path d="M0 0 C0 1.32 0 2.64 0 4 C-3.3 4.33 -6.6 4.66 -10 5 C-6.95224467 1.95224467 -4.42002798 0 0 0 Z " fill="#3C3C3C" transform="translate(285,114)"/>
<path d="M0 0 C2.64 0.99 5.28 1.98 8 3 C6.35 4.32 4.7 5.64 3 7 C0 3.375 0 3.375 0 0 Z " fill="#504E4F" transform="translate(232,530)"/>
<path d="M0 0 C1.98 0.99 3.96 1.98 6 3 C5.01 4.485 5.01 4.485 4 6 C1.525 5.01 1.525 5.01 -1 4 C-0.67 2.68 -0.34 1.36 0 0 Z " fill="#3C3A3B" transform="translate(254,473)"/>
<path d="M0 0 C1.32 0.66 2.64 1.32 4 2 C3.34 3.65 2.68 5.3 2 7 C0.4375 5.75 0.4375 5.75 -1 4 C-0.6875 1.8125 -0.6875 1.8125 0 0 Z " fill="#454344" transform="translate(1243,446)"/>
<path d="M0 0 C4.875 1.75 4.875 1.75 6 4 C3.69 4.33 1.38 4.66 -1 5 C-0.67 3.35 -0.34 1.7 0 0 Z " fill="#3E3C3D" transform="translate(321,561)"/>
<path d="M0 0 C1.32 1.32 2.64 2.64 4 4 C3.67 4.66 3.34 5.32 3 6 C1.68 5.34 0.36 4.68 -1 4 C-1 1 -1 1 0 0 Z " fill="#353435" transform="translate(1250,381)"/>
<path d="M0 0 C1.65 1.32 3.3 2.64 5 4 C4.01 4 3.02 4 2 4 C2 4.66 2 5.32 2 6 C1.34 6 0.68 6 0 6 C0 5.34 0 4.68 0 4 C-0.66 4 -1.32 4 -2 4 C-2 3.34 -2 2.68 -2 2 C-1.34 2 -0.68 2 0 2 C0 1.34 0 0.68 0 0 Z " fill="#3F3D3E" transform="translate(655,144)"/>
<path d="M0 0 C0.66 0.33 1.32 0.66 2 1 C1.67 2.65 1.34 4.3 1 6 C-0.32 5.34 -1.64 4.68 -3 4 C-2.01 2.68 -1.02 1.36 0 0 Z " fill="#3E3C3D" transform="translate(344,512)"/>
<path d="M0 0 C0.99 0.33 1.98 0.66 3 1 C3.6875 3.0625 3.6875 3.0625 4 5 C2.35 4.67 0.7 4.34 -1 4 C-0.67 2.68 -0.34 1.36 0 0 Z " fill="#383838" transform="translate(1266,377)"/>
<path d="M0 0 C-0.3125 1.9375 -0.3125 1.9375 -1 4 C-1.99 4.33 -2.98 4.66 -4 5 C-4.66 3.35 -5.32 1.7 -6 0 C-2.25 -1.125 -2.25 -1.125 0 0 Z " fill="#3D3C3D" transform="translate(558,201)"/>
</svg>
